# xmcd
#
# Track frame offsets:
#	150
#	18267
#	41481
#	60045
#	64554
#	85538
#	105895
#	124450
#	140719
#	157677
#	181618
#	200050
#
# Disc length: 2853 seconds
#
# Revision: 0
# Processed by: cddbd v1.5.1PL0 Copyright (c) Steve Scherf et al.
# Submitted via: dBpowerAMP V4.0
#
DISCID=890b230c
DTITLE=Ben Harper And The Innocent Criminals - Burn To Shine
DYEAR=1999
DGENRE=
TTITLE0=Alone
TTITLE1=The Woman In You
TTITLE2=Less
TTITLE3=Two Hands Of A Prayer
TTITLE4=Please Bleed
TTITLE5=Suzie Blue
TTITLE6=Steal My Kisses
TTITLE7=Burn To Shine
TTITLE8=Show Me A Little Shame
TTITLE9=Forgiven
TTITLE10=Beloved One
TTITLE11=In The Lord's Arms
EXTD=
EXTT0=
EXTT1=
EXTT2=
EXTT3=
EXTT4=
EXTT5=
EXTT6=
EXTT7=
EXTT8=
EXTT9=
EXTT10=
EXTT11=
PLAYORDER=
